<?xml version="1.0" encoding="utf-8"?>
<!-- Generator: Adobe Illustrator 22.1.0, SVG Export Plug-In . SVG Version: 6.00 Build 0)  -->
<svg version="1.1" id="Layer_1" xmlns="http://www.w3.org/2000/svg" xmlns:xlink="http://www.w3.org/1999/xlink" x="0px" y="0px"
	 viewBox="0 0 205.2 37.5" style="enable-background:new 0 0 205.2 37.5;" xml:space="preserve">
<style type="text/css">
	.st0{display:none;}
	.st1{display:inline;fill:#FFFFFF;}
	.st2{display:inline;fill:none;stroke:#000000;stroke-width:8;stroke-linecap:round;stroke-miterlimit:10;}
	.st3{enable-background:new    ;}
</style>
<g id="Layer_4" class="st0">
	<path class="st1" d="M102,17.9c-3.7-0.7-6-1.3-7.3-2.7c-1.4-1.4-2-3.6-2.7-7.3c-0.1-0.3-0.3-0.5-0.6-0.5c-0.3,0-0.6,0.2-0.6,0.5
		c-0.7,3.7-1.3,6-2.7,7.3c-1.4,1.4-3.6,2-7.3,2.7c-0.3,0.1-0.5,0.3-0.5,0.6c0,0.3,0.2,0.6,0.5,0.6c3.7,0.7,6,1.3,7.3,2.7
		c1.4,1.4,2,3.6,2.7,7.3c0.1,0.3,0.3,0.5,0.6,0.5c0.3,0,0.6-0.2,0.6-0.5c0.7-3.7,1.3-6,2.7-7.3c1.4-1.4,3.6-2,7.3-2.7
		c0.3-0.1,0.5-0.3,0.5-0.6S102.3,18,102,17.9z"/>
</g>
<g id="Layer_2_1_" class="st0">
	<path class="st2" d="M-81.1-45.6c6.7-9.8,10.6-21.7,10.6-34.5c0-33.8-27.4-61.3-61.3-61.3s-61.3,27.4-61.3,61.3
		c0,33.8,27.4,61.3,61.3,61.3c14.6,0,28-5.1,38.6-13.7"/>
</g>
<g class="st3">
	<path d="M13.9,1.9c1.8-0.3,3.8-0.5,5.6-0.5c2.8,0,5.1,0.8,6.5,2.2c1.3,1.4,2,3.3,2,5.6c0,5-3.1,9.5-7.5,10.9v0.1
		c2.2,0.8,3.2,3.3,3.3,8c0.1,4.9,0.3,7.9,0.6,9.1h-3.9c-0.2-1.1-0.2-4.5-0.3-8.9c-0.2-5-1.3-6.9-4.6-6.9h-1.7L11,37.3H7.3L13.9,1.9z
		 M14.6,18.5h1.9c4.3,0,7.6-3.9,7.6-9c0-2.8-1.2-4.9-4.7-4.9c-0.8,0-1.6,0.1-2.2,0.3L14.6,18.5z"/>
	<path d="M32.3,37.3l2.9-15.1L31.3,1.6h4.1l1.7,10.5c0.4,2.8,0.6,5,0.7,6.5h0.1c1-2,1.9-4,3.1-6.4l5.8-10.5h4.1l-12,20.6L36,37.5
		h-3.7V37.3z"/>
	<path d="M51.5,26.5l-4.3,10.8h-3.9L58.1,1.6h4.2l1.1,35.7h-3.7l-0.3-10.8H51.5z M59.5,23.4l-0.2-9.2c-0.1-2.5,0-5.5,0-8.2h-0.2
		c-1,2.8-2,5.9-3,8.3l-3.7,9.2h7.1V23.4z"/>
	<path d="M67.6,37.3l6.8-35.7h3.7l3.6,19.2c0.7,3.6,1.3,6.9,1.7,10.2h0.1c0.5-3.9,1-8.1,1.7-12.2l3.3-17.3h3.3l-6.7,35.7h-3.4
		l-3.8-18.6c-0.6-3.5-1.1-6.8-1.6-11h-0.1c-0.4,3.7-1.2,8.2-2,12.5L71,37.3H67.6z"/>
	<path d="M98.4,2c1.8-0.4,4.2-0.6,6.8-0.6c4.3,0,7.1,1.5,8.8,3.7c2,2.5,2.6,5.7,2.6,9.3c0,9.1-4,16.7-7.7,19.7
		c-2.9,2.4-6.1,3.4-10.8,3.4c-2.1,0-4.7-0.2-6.4-0.7L98.4,2z M99.2,31.7c0.4,0.1,1.1,0.2,1.7,0.2c2.2,0,4.6-1.7,6.1-4.9
		c1.7-3.4,2.9-7.8,2.9-13.2c0-3.4-1.1-6.9-4.5-6.9c-0.6,0-1.2,0-1.5,0.1L99.2,31.7z"/>
	<path d="M124,2c2.2-0.4,4.7-0.6,7.1-0.6c3.1,0,6,0.6,7.9,2.4c1.5,1.5,2.3,3.6,2.3,5.9c0,5.2-3.2,9.4-7.3,10.8v0.1
		c2,0.9,2.8,3,2.9,6.9c0.1,4,0.2,8.4,0.6,9.7h-6.7c-0.2-1-0.3-4.6-0.3-8.5c0-4.3-0.9-5.8-3.1-5.8h-1.1l-2.7,14.3h-6.5L124,2z
		 M127.4,17.8h1.5c3.3,0,5.6-3.6,5.6-7.3c0-1.9-0.8-3.9-3.3-3.9c-0.7,0-1.3,0.1-1.7,0.2L127.4,17.8z"/>
	<path d="M159.1,21.5h-7.8l-2,9.9h9l-1.2,5.9h-15.6l6.8-35.7h15l-1.2,5.8h-8.2l-1.7,8.5h8L159.1,21.5z"/>
	<path d="M165.4,37.3l1.1-35.7h6.9l-1.1,16c-0.3,3.9-0.7,7.6-1.2,11.5h0.2c0.9-3.9,2.1-7.2,3.4-10.9l6.2-16.7h6l-0.6,16
		c-0.2,3.8-0.5,7.6-0.8,11.6h0.1c1-3.9,2-7.6,3.1-11.1l5.2-16.4h6.5l-12.7,35.7h-7v-12c0.1-3.9,0.3-8.1,0.7-11.7h-0.1
		c-1.2,3.5-2.5,7.7-4.6,12.5l-4.6,11.1L165.4,37.3L165.4,37.3z"/>
</g>
</svg>
